@startuml

entity Seccção {
    + Codigo: int [PK]
    + Nome: string
}

entity Funcionario_Manutencao{
    + ID_Especialidade [FK]
}

entity Funcionario {
    + NumeroIdentificativo: int [PK]
    + BI: string
    + Nome: string
}

entity Manutencao{
    + ID_Especialidade: string [FK]
    + Pedido: int [FK]
}
entity Responsável{
    + NumeroIdentificativo [FK]
}

entity Especialidade {
    + ID: int [PK]
    + Nome: string
}

entity Pedido {
    + NumeroSequencial: int [PK]
    + DataHoraEnvio: datetime
    + SecaoOrigem: int [FK]
    + FuncionarioSolicitante: int [FK]
}

entity Atividade {
    + NumeroAtividade: int [PK]
    + DataInicio: datetime
    + DataFim: datetime
    + FuncionarioResponsavel: int [FK]
    + Especialidade: int [FK]
}

entity Material {
    + Codigo: int [PK]
    + Designacao: string
    + UnidadeMedida: string
    + Categoria: string
}

entity Fornecedor {
    + NumeroContribuinte: string [PK]
    + NomeEmpresa: string
    + Morada: string
}

entity Compra {
    + id: int [PK]
    + Atividade: int [FK]
    + Fornecedor: string [FK]
    + QuantidadeAdquirida: int
    + DataAquisicao: datetime
    + Preco: decimal
}

Funcionario_Manutencao "*" -- "1" Especialidade :>
Funcionario_Manutencao "*" -- "1" Atividade :>
Funcionario_Manutencao "1" -- "1" Responsável :>
Responsável "1" -- "1" Atividade :>
Funcionario "*" -- "*" Funcionario_Manutencao :>
Especialidade "1" -- "1" Manutencao :>
Seccção "*" -- "*" Pedido :>
Funcionario "*" -- "*" Seccção :>
Pedido "*" -- "1" Manutencao :>
Manutencao "1" -- "*" Atividade :>
Material "*" -- "*" Fornecedor :<
Atividade "1" -- "1" Compra :<
Compra "1" -- "*" Material :<


@enduml
